<svg width="21" height="21" viewBox="0 0 21 21" fill="none" xmlns="http://www.w3.org/2000/svg">
  <path d="M5.617 7.014H2.561v11.393h3.056V7.014zm1.528-5.072c0 1.028-.833 1.861-1.861 1.861s-1.861-.833-1.861-1.861S4.256.081 5.284.081 7.145 1.914 7.145 1.942zM17.193 7.3c-1.1-.548-2.41-.448-3.278.314v-.004h-.003c-.363.315-.67.71-.888 1.137-.216.426-.353.892-.403 1.367v.048-.003c-.001 3.137 0 6.289 0 9.427h-3.056V7.015h3.056v1.518c.729-.946 2.036-1.44 3.283-1.168.727.145 1.36.583 1.85 1.221.493.638.751 1.422.744 2.213v.003h-.001c0 2.282.002 4.566.002 6.848h-3.056V11.441c0-.484-.177-.948-.502-1.302-.326-.354-.77-.578-1.249-.637-.996-.118-2.057.317-2.584 1.172V18.41h-3.056V7.014h3.056v1.629c1.015-1.197 2.604-1.759 4.109-1.427.791.169 1.516.585 2.05 1.194.534.609.839 1.37.878 2.147v.006c.003 2.28.002 4.561.002 6.842h-3.056v-6.474c0-.762-.287-1.49-.802-2.044-.515-.554-1.22-.88-1.954-.92z" fill="white"/>
</svg>
